<svg xmlns="http://www.w3.org/2000/svg" viewBox="0 0 900 1150" font-family="Georgia, 'Times New Roman', serif">
  <defs>
    <radialGradient id="paperS" cx="50%" cy="38%" r="75%">
      <stop offset="0%" stop-color="#f3ead4"/>
      <stop offset="100%" stop-color="#e3d5b3"/>
    </radialGradient>
    <pattern id="hatchS" width="7" height="7" patternUnits="userSpaceOnUse" patternTransform="rotate(52)">
      <line x1="0" y1="0" x2="0" y2="7" stroke="#241b12" stroke-width="0.9" opacity="0.55"/>
    </pattern>
    <pattern id="hatchDeepS" width="6" height="6" patternUnits="userSpaceOnUse" patternTransform="rotate(52)">
      <line x1="0" y1="0" x2="0" y2="6" stroke="#241b12" stroke-width="1.1" opacity="0.7"/>
    </pattern>
    <pattern id="crossHatchS" width="7" height="7" patternUnits="userSpaceOnUse">
      <line x1="0" y1="0" x2="0" y2="7" stroke="#241b12" stroke-width="0.8" opacity="0.5" transform="rotate(45 3.5 3.5)"/>
      <line x1="0" y1="0" x2="0" y2="7" stroke="#241b12" stroke-width="0.8" opacity="0.5" transform="rotate(-45 3.5 3.5)"/>
    </pattern>
    <filter id="glowS" x="-100%" y="-100%" width="300%" height="300%">
      <feGaussianBlur stdDeviation="4" result="b"/>
      <feMerge><feMergeNode in="b"/><feMergeNode in="SourceGraphic"/></feMerge>
    </filter>
  </defs>

  <rect width="900" height="1150" fill="url(#paperS)"/>
  <text x="450" y="52" text-anchor="middle" font-size="26" fill="#2a2015" letter-spacing="2">RÛN — ETAPA 3: VISTA LATERAL</text>
  <text x="450" y="78" text-anchor="middle" font-size="14" fill="#5a4a34">Perfil desde el lado ORGÁNICO — personaje mirando a la izquierda</text>

  <ellipse cx="450" cy="918" rx="200" ry="18" fill="#00000012"/>

  <!-- ===== HAIR BACK MASS (falls down the back/nape) ===== -->
  <path d="M470,118 C500,140 520,178 522,222 C523,264 512,304 494,336 C486,320 480,300 480,278 C486,246 486,206 476,168 C472,150 468,132 470,118 Z" fill="#241a10"/>
  <path d="M470,118 C500,140 520,178 522,222 C523,264 512,304 494,336 C486,320 480,300 480,278 C486,246 486,206 476,168 C472,150 468,132 470,118 Z" fill="url(#hatchS)" opacity="0.3"/>

  <!-- ===== PROSTHETIC ARM (far side, mostly hidden behind torso, only a sliver reads) ===== -->
  <path d="M472,238 C498,256 512,286 514,320 C516,354 510,388 496,414 C504,392 508,368 506,344 C503,312 494,282 476,258 Z" fill="#a97e52"/>
  <g fill="#4a2f1c">
    <rect x="486" y="318" width="30" height="10" rx="4" transform="rotate(10 501 323)"/>
  </g>
  <circle cx="501" cy="323" r="4" fill="#cdeaf5" opacity="0.7" filter="url(#glowS)"/>
  <path d="M494,410 C506,406 516,412 517,424 C518,436 508,444 496,442 C488,440 484,432 486,424 C488,416 490,412 494,410 Z" fill="#6b4327"/>

  <!-- ===== BACK LEG (trailing) ===== -->
  <path d="M456,540 C462,592 466,648 466,694 C466,724 464,742 462,764 C460,802 458,840 458,868 C458,880 460,890 464,898 L484,898 C488,888 489,878 488,866 C487,828 486,790 482,752 C480,716 478,676 474,636 C471,600 470,570 472,546 Z" fill="#b98a5e"/>
  <path d="M456,540 C462,592 466,648 466,694 C466,724 464,742 462,764 C460,802 458,840 458,868 C458,880 460,890 464,898 L484,898 C488,888 489,878 488,866 C487,828 486,790 482,752 C480,716 478,676 474,636 C471,600 470,570 472,546 Z" fill="url(#hatchS)" opacity="0.35"/>
  <path d="M458,898 C453,908 452,916 455,924 C460,931 480,933 490,928 C497,924 495,912 489,904 L484,898 Z" fill="#5c3c22"/>

  <!-- ===== FRONT LEG (leading, alert stance) ===== -->
  <path d="M412,540 C404,584 396,632 388,670 C382,698 376,714 372,736 C366,776 362,818 362,854 C362,868 364,880 368,890 L390,890 C394,880 395,870 394,858 C394,822 397,784 404,746 C409,718 416,686 424,652 C430,624 434,598 432,546 Z" fill="#c9925f"/>
  <path d="M412,540 C404,584 396,632 388,670 C382,698 376,714 372,736 C366,776 362,818 362,854 C362,868 364,880 368,890 L390,890 C394,880 395,870 394,858 C394,822 397,784 404,746 C409,718 416,686 424,652 C430,624 434,598 432,546 Z" fill="url(#hatchS)" opacity="0.35"/>
  <path d="M362,890 C356,900 354,908 358,916 C363,923 384,925 396,919 C403,915 401,904 394,896 L390,890 Z" fill="#5c3c22"/>
  <path d="M362,890 C356,900 354,908 358,916 C363,923 384,925 396,919 C403,915 401,904 394,896 L390,890 Z" fill="url(#hatchDeepS)" opacity="0.5"/>

  <!-- leg wraps -->
  <g stroke="#4a2f1c" stroke-width="5" fill="none" opacity="0.8">
    <path d="M378,610 C392,616 406,614 416,606"/>
    <path d="M370,680 C386,688 402,686 412,676"/>
    <path d="M365,760 C380,768 394,766 402,756"/>
    <path d="M464,610 C472,616 480,614 486,608"/>
    <path d="M462,690 C470,696 478,694 482,688"/>
  </g>

  <!-- ===== HIP / LOINCLOTH ===== -->
  <path d="M392,514 C420,536 452,546 476,542 C500,538 514,524 520,504 C524,522 522,542 512,558 L400,562 C392,546 388,528 392,514 Z" fill="#6b4327"/>
  <path d="M392,514 C420,536 452,546 476,542 C500,538 514,524 520,504 C524,522 522,542 512,558 L400,562 C392,546 388,528 392,514 Z" fill="url(#hatchS)" opacity="0.25"/>
  <g stroke="#4a2f1c" stroke-width="4" opacity="0.75">
    <line x1="404" y1="562" x2="400" y2="592"/>
    <line x1="424" y1="563" x2="422" y2="596"/>
    <line x1="446" y1="563" x2="446" y2="598"/>
  </g>

  <!-- ===== FRACTURE AXE — lower back / hip, along the back edge ===== -->
  <g transform="translate(514,500) rotate(28)">
    <rect x="-4" y="0" width="8" height="90" rx="3" fill="#5c3c22"/>
    <path d="M-6,4 C10,-8 26,-24 24,-42 C10,-32 -4,-18 -12,-4 Z" fill="#17171a"/>
    <path d="M-6,4 C10,-8 26,-24 24,-42 C10,-32 -4,-18 -12,-4 Z" fill="url(#crossHatchS)" opacity="0.5"/>
    <line x1="4" y1="0" x2="16" y2="-14" stroke="#cdeaf5" stroke-width="1.6" opacity="0.75" filter="url(#glowS)"/>
  </g>

  <!-- ===== TORSO (profile, front=left / back=right) ===== -->
  <path d="M430,235 C400,244 378,262 370,288 C364,310 366,332 372,352 C366,380 362,410 366,440 C368,458 374,474 384,486 C378,500 372,514 376,528 L400,546 L470,546 C500,540 516,522 518,504 C522,486 518,466 512,448 C518,420 520,392 514,364 C520,336 522,308 514,282 C508,262 494,246 470,236 C456,232 442,232 430,235 Z" fill="#c9925f"/>
  <path d="M430,235 C400,244 378,262 370,288 C364,310 366,332 372,352 C366,380 362,410 366,440 C368,458 374,474 384,486 C378,500 372,514 376,528 L400,546 L470,546 C500,540 516,522 518,504 C522,486 518,466 512,448 C518,420 520,392 514,364 C520,336 522,308 514,282 C508,262 494,246 470,236 C456,232 442,232 430,235 Z" fill="url(#hatchS)" opacity="0.2"/>
  <!-- back shadow -->
  <path d="M506,270 C514,310 516,350 510,392 C516,352 516,310 508,268 Z" fill="url(#hatchDeepS)" opacity="0.55"/>

  <!-- ===== ATLATL — diagonal harness across the back ===== -->
  <path d="M400,540 L500,214" stroke="#4a2f1c" stroke-width="13" stroke-linecap="round" opacity="0.9"/>
  <path d="M400,540 L500,214" stroke="#2e1e10" stroke-width="4" stroke-linecap="round" opacity="0.6"/>
  <g transform="translate(494,200) rotate(-18)">
    <rect x="-6" y="-72" width="12" height="150" rx="5" fill="#5c3c22"/>
    <rect x="-6" y="-72" width="12" height="150" rx="5" fill="url(#hatchS)" opacity="0.3"/>
    <rect x="-9" y="-82" width="18" height="16" rx="4" fill="#17171a"/>
    <circle cx="0" cy="-74" r="4" fill="#cdeaf5" opacity="0.6" filter="url(#glowS)"/>
  </g>

  <!-- ===== ORGANIC ARM (near/visible, dominant) ===== -->
  <path d="M430,238 C412,256 398,280 392,308 C387,336 388,364 396,390 C392,414 388,440 390,464 C391,480 396,494 402,506 C396,514 388,514 384,504 C376,486 372,464 372,440 C370,410 374,378 384,348 C390,322 400,296 416,274 C420,262 424,250 430,238 Z" fill="#c9925f"/>
  <path d="M430,238 C412,256 398,280 392,308 C387,336 388,364 396,390 C392,414 388,440 390,464 C391,480 396,494 402,506 C396,514 388,514 384,504 C376,486 372,464 372,440 C370,410 374,378 384,348 C390,322 400,296 416,274 C420,262 424,250 430,238 Z" fill="url(#hatchS)" opacity="0.3"/>
  <path d="M390,502 C404,498 414,506 414,518 C414,530 404,536 392,534 C384,532 378,524 380,514 C382,506 386,504 390,502 Z" fill="#c9925f"/>
  <path d="M390,502 C404,498 414,506 414,518 C414,530 404,536 392,534 C384,532 378,524 380,514 C382,506 386,504 390,502 Z" fill="url(#hatchS)" opacity="0.25"/>
  <g stroke="#4a2f1c" stroke-width="5" opacity="0.75">
    <path d="M392,320 C400,328 410,328 418,320"/>
    <path d="M390,400 C398,408 408,408 414,400"/>
  </g>

  <!-- ===== NECK + HEAD (profile, facing left) ===== -->
  <path d="M448,198 C444,212 444,224 450,234 L470,234 C476,224 476,212 472,198 Z" fill="#c08152"/>
  <path d="M450,110 C475,112 488,135 486,160 C484,178 474,192 460,200 C455,203 450,204 446,202 C440,206 428,208 418,204 C405,200 396,192 392,182 C388,172 382,168 372,164 C378,158 384,150 390,142 C394,130 404,118 420,112 C430,108 440,107 450,110 Z" fill="#c9925f"/>
  <path d="M450,110 C475,112 488,135 486,160 C484,178 474,192 460,200 C455,203 450,204 446,202 C440,206 428,208 418,204 C405,200 396,192 392,182 C388,172 382,168 372,164 C378,158 384,150 390,142 C394,130 404,118 420,112 C430,108 440,107 450,110 Z" fill="url(#hatchS)" opacity="0.18"/>
  <!-- ear -->
  <ellipse cx="461" cy="170" rx="8" ry="12" fill="#c08152" stroke="#9c6a3e" stroke-width="1"/>

  <!-- organic eye, in profile -->
  <path d="M398,168 C403,163 411,163 415,168 C411,172 403,172 398,168 Z" fill="#241a10"/>
  <path d="M396,167 C402,161 413,161 418,167" stroke="#5a3c22" stroke-width="1.4" fill="none"/>
  <path d="M394,178 C400,183 408,184 414,180" stroke="#5a3c22" stroke-width="1.4" fill="none"/>

  <!-- ===== HAIR FRONT: fringe strand + topknot ===== -->
  <path d="M450,106 C428,104 410,116 402,134 C412,126 424,120 436,120 C428,128 422,138 420,150 C430,140 440,134 448,132 C442,144 440,156 444,168 C450,150 452,130 450,106 Z" fill="#2e2115"/>
  <ellipse cx="466" cy="120" rx="13" ry="8" fill="#4a2f1c" transform="rotate(18 466 120)"/>
  <path d="M458,116 C464,130 470,142 462,156" stroke="#2e2115" stroke-width="3" fill="none" stroke-linecap="round"/>
  <path d="M474,116 C470,132 466,144 476,158" stroke="#2e2115" stroke-width="3" fill="none" stroke-linecap="round"/>

  <g font-size="13" fill="#3a2f20">
    <text x="60" y="1080">Consistencia: silueta, proporción (≈8.3 cabezas), pelo, atlatl y hacha iguales a Etapa 2.</text>
    <text x="60" y="1100">Brazo protésico apenas visible tras el torso (lado lejano); brazo/mano orgánicos en primer plano.</text>
    <text x="60" y="1120">Atlatl cruza la espalda en diagonal; hacha de fractura queda a la altura de la cadera/espalda baja.</text>
  </g>
</svg>
